<?xml version="1.0" encoding="utf-8"?>

<!DOCTYPE svg PUBLIC "-//W3C//DTD SVG 1.1//EN" "http://www.w3.org/Graphics/SVG/1.1/DTD/svg11.dtd">
<!-- Uploaded to: SVG Repo, www.svgrepo.com, Generator: SVG Repo Mixer Tools -->
<svg height="800px" width="800px" version="1.1" id="_x32_" xmlns="http://www.w3.org/2000/svg" xmlns:xlink="http://www.w3.org/1999/xlink" 
	 viewBox="0 0 512 512"  xml:space="preserve">
<style type="text/css">
	.st0{fill:#000000;}
</style>
<g>
	<path class="st0" d="M219.413,211.61c4.816-4.8,7.818-11.521,7.813-18.849c0.005-7.347-2.997-14.068-7.813-18.849
		c-4.8-4.82-11.51-7.828-18.849-7.818c-7.342-0.01-14.063,2.998-18.864,7.818c-4.805,4.781-7.808,11.502-7.803,18.849
		c-0.005,7.328,2.998,14.049,7.803,18.849c4.805,4.81,11.522,7.818,18.864,7.808C207.898,219.428,214.613,216.42,219.413,211.61z
		 M189.499,192.761c0.005-3.076,1.234-5.799,3.237-7.828c2.034-2.008,4.747-3.242,7.828-3.242c3.072,0,5.79,1.234,7.813,3.242
		c2.018,2.029,3.233,4.752,3.238,7.828c-0.005,3.077-1.22,5.79-3.238,7.818c-2.022,2.008-4.741,3.223-7.813,3.233
		c-3.081-0.01-5.8-1.225-7.828-3.233C190.733,198.552,189.504,195.838,189.499,192.761z"/>
	<path class="st0" d="M460.783,170.543c0-14.568-0.975-28.058-3.248-40.814c-3.4-19.133-9.841-36.572-19.937-52.668
		c-10.075-16.086-23.59-30.674-40.74-44.948c-13.735-11.442-29.9-19.446-47.069-24.609C332.606,2.35,314.359,0,296.059,0
		c-22.611,0-45.33,3.586-66.344,10.248l1.391-0.442l-1.396,0.442c-16.645,5.3-32.153,12.647-45.726,21.846l-40.06-14.587h0.015
		c-0.911-0.333-1.876-0.5-2.841-0.5c-1.964,0-3.914,0.705-5.442,2.048c-1.818,1.587-2.836,3.86-2.836,6.231l0.176,1.704
		l17.957,84.664c-7.925,10.639-14.686,21.425-20.397,31.379c-6.794,11.844-12.246,22.562-16.375,29.978l-0.549,0.979v0.039
		c-3.796,6.878-9.053,16.871-14.999,28.352c-18.599,35.973-43.297,85.36-43.312,85.388l-3.228,6.467l0.005-0.01
		c-0.593,1.176-0.882,2.459-0.882,3.703c-0.005,2.812,1.45,5.536,3.993,7.074l83.747,50.267h-0.005
		c1.318,0.794,2.797,1.176,4.252,1.176c1.69,0,3.35-0.518,4.762-1.499l21.352-15.067l-20.211,74.181l-1.239,0.01h0.005
		c-4.017,0.019-7.388,2.85-8.132,6.759l-15.033,81.392l-0.138,1.489c0,1.92,0.666,3.801,1.915,5.31h0.005
		c1.578,1.901,3.909,2.978,6.358,2.978H439.65c2.416,0,4.683-1.038,6.251-2.861v0.01c1.312-1.519,2.028-3.458,2.028-5.427
		l-0.088-1.166l-1.254-8.895l-10.35-73.056c-0.524-3.713-3.492-6.416-7.102-6.906c5.51-31.292,16.708-97.233,25.266-163.499
		C458.314,219.771,460.773,193.78,460.783,170.543z M142.524,329.554l-62.597-37.561c4.948-9.866,14.941-29.753,25.379-50.257
		c5.731-11.267,11.595-22.709,16.822-32.761c5.212-10.051,9.806-18.722,12.931-24.344c4.477-8.073,9.753-18.458,16.214-29.714
		c6.452-11.238,14.064-23.307,23.032-34.554l2.302-2.87l-14.406-67.921l74.686,27.166l2.161-0.441
		c5.686-1.166,11.653-1.783,17.952-1.783c35.049,0,66.701,14.176,89.676,37.13c22.963,22.973,37.139,54.637,37.144,89.67
		c0.005,18.114-1.73,41.489-4.35,66.207c-3.938,37.1-9.855,77.326-14.793,108.215c-2.464,15.439-4.683,28.577-6.289,37.826
		c-0.564,3.252-1.044,5.995-1.44,8.219h-41.411H171.762l31.639-116.17l42.793-31.8l-9.318-12.53l-44.864,33.338L142.524,329.554z
		 M151.605,488.115l9.269-50.189l253.624-0.529l7.176,50.718H151.605z M430.701,247.143c-5.828,45.232-12.936,90.493-18.589,124.459
		c-2.826,16.977-5.285,31.134-7.038,41.018c-0.647,3.665-1.201,6.74-1.636,9.16h-30.64c2.493-14.215,7.48-43.409,12.471-77.306
		c3.532-23.963,7.064-50.268,9.714-75.298c2.654-25.051,4.443-48.798,4.448-67.862c0-39.295-15.96-74.955-41.72-100.701
		c-25.746-25.766-61.406-41.725-100.712-41.715c-6.53,0-12.795,0.607-18.815,1.694l-34.818-12.657
		c10.008-5.986,21.382-11.041,33.579-14.91c18.609-5.928,39.045-9.141,59.114-9.141c16.248,0,32.25,2.107,46.858,6.496
		c14.616,4.399,27.818,11.041,38.648,20.074c10.516,8.778,19.187,17.35,26.28,26.059c10.64,13.089,17.787,26.432,22.4,41.597
		c4.61,15.136,6.652,32.193,6.652,52.433C436.903,192.085,434.571,217.185,430.701,247.143z"/>
	<path class="st0" d="M55.229,305.022c0,0-0.01-0.009-0.019-0.019l-1.23-0.734L55.229,305.022z"/>
	<polygon class="st0" points="135.651,19.055 135.656,19.055 135.661,19.044 	"/>
</g>
</svg>