<?xml version="1.0" encoding="iso-8859-1"?>
<!-- Uploaded to: SVG Repo, www.svgrepo.com, Generator: SVG Repo Mixer Tools -->
<!DOCTYPE svg PUBLIC "-//W3C//DTD SVG 1.1//EN" "http://www.w3.org/Graphics/SVG/1.1/DTD/svg11.dtd">
<svg fill="#000000" height="800px" width="800px" version="1.1" id="Capa_1" xmlns="http://www.w3.org/2000/svg" xmlns:xlink="http://www.w3.org/1999/xlink" 
	 viewBox="0 0 281.243 281.243" xml:space="preserve">
<g>
	<path d="M238.598,164.193c-2.805,2.341-6.213,3.482-9.602,3.482c-4.295,0-8.559-1.835-11.525-5.391l-4.544-5.446
		c-11.604-13.907-24.332-26.929-37.977-38.877c0,0,2.384,94.96-59.655,151.809l-7.411,7.218c-2.916,2.84-6.692,4.254-10.465,4.254
		c-3.905,0-7.807-1.516-10.747-4.534c-5.779-5.935-5.654-15.432,0.28-21.212l7.412-7.219c17.4-16.943,29.416-38.476,34.792-61.907
		c-9.831,3.011-20.032,4.532-30.236,4.532c-19.017,0-38.029-5.227-54.632-15.685c-7.009-4.415-9.112-13.677-4.696-20.687
		c4.414-7.008,13.676-9.113,20.687-4.696c19.641,12.371,44.059,14.384,65.261,6.066l5.866-53.723
		c-1.392,0.067-2.783,0.112-4.172,0.112c-21.581,0-42.561-8.05-58.906-23.151l-0.975-0.9c-1.242,0.18-2.511,0.277-3.803,0.277
		c-14.523,0-26.297-11.773-26.297-26.297s11.773-26.297,26.297-26.297s26.297,11.773,26.297,26.297c0,1.859-0.195,3.672-0.562,5.421
		c14.391,12.932,34.062,17.68,52.802,12.694l8.886-2.366c0.1-0.027,0.2-0.039,0.299-0.064c0.265-0.065,0.531-0.12,0.8-0.17
		c0.23-0.043,0.46-0.085,0.69-0.117c0.242-0.034,0.484-0.057,0.728-0.079c0.253-0.023,0.505-0.045,0.757-0.055
		c0.227-0.009,0.454-0.007,0.682-0.006c0.259,0.002,0.517,0.003,0.774,0.018c0.235,0.013,0.468,0.039,0.703,0.064
		c0.242,0.026,0.483,0.049,0.722,0.087c0.258,0.04,0.514,0.094,0.771,0.147c0.209,0.044,0.418,0.085,0.625,0.137
		c0.279,0.071,0.553,0.156,0.829,0.243c0.182,0.058,0.364,0.112,0.544,0.177c0.278,0.1,0.551,0.214,0.824,0.331
		c0.176,0.075,0.352,0.148,0.524,0.23c0.253,0.12,0.502,0.253,0.75,0.388c0.192,0.104,0.382,0.209,0.569,0.321
		c0.215,0.13,0.425,0.268,0.635,0.41c0.214,0.144,0.425,0.291,0.632,0.446c0.086,0.065,0.177,0.118,0.262,0.185l14.985,11.758
		c20.806,16.325,39.945,34.896,56.885,55.2l4.544,5.446C245.814,149.428,244.959,158.887,238.598,164.193z M153.98,61.351
		c16.942,0,30.675-13.734,30.675-30.675C184.655,13.734,170.922,0,153.98,0s-30.675,13.734-30.675,30.675
		C123.305,47.617,137.038,61.351,153.98,61.351z"/>
</g>
</svg>