<svg enable-background="new 0 0 20 20" height="20" viewBox="0 0 20 20" width="20" xmlns="http://www.w3.org/2000/svg"><path d="m0 0h20v20h-20z" fill="none"/><circle cx="13.5" cy="2.5" r="1.5"/><path d="m12 10.34c-.81-.06-1.53-.32-2.17-.78-.23-.16-.45-.34-.66-.55l-1.88-1.89c-.39-.39-1.02-.39-1.41 0l-2.81 2.79c-.22.22-.32.52-.29.82l.42 3.75-2.75 2.75.71.71 3.25-3.25.04-2 1.55 1.34v3.97h1v-4.69l-1.96-2.05 2.51-2.51.9.9c1.02 1.02 2.13 1.62 3.56 1.69v-1z"/><path d="m9.5 6.99c.82 0 1.5-.68 1.5-1.5 0-.77-.59-1.38-1.34-1.47-.05-.01-.1-.03-.16-.03-.82 0-1.5.67-1.5 1.5 0 .18.05.35.11.51.21.57.75.99 1.39.99z"/><path d="m19 9.53v-3.35l-3.85-1.53c-.18-.08-.37-.11-.56-.11-.5 0-.96.25-1.23.68l-.82 1.32c-.54.92-1.43 1.61-2.46 1.93.24.21.48.39.74.53.06.03.15.08.26.15.73-.34 1.38-.82 1.91-1.42l.44-.51.67 3.33-2.1 1.69v5.76h1v-4.8l2.59-2.16 1.57 6.96h1.08l-2.37-11.91 2.13.72v2.72z"/></svg>